<svg xmlns="http://www.w3.org/2000/svg" width="42" height="42"><g fill="none"><rect width="42" height="42" fill="#13C1AC" rx="10"/><path fill="#FFF" d="M32.935 21.004c.32 1.608-.214 5.363-4.096 6.385-.199.052-.334.253-.359.463a5.899 5.899 0 0 1-2.55 4.217c-2.608 1.748-6.1.993-7.841-1.647-.138-.22-.344-.305-.628-.221a5.492 5.492 0 0 1-4.802-.626c-2.622-1.728-3.384-5.32-1.706-8.022a.58.58 0 0 0-.099-.727c-1.922-1.727-2.393-4.378-1.21-6.705 1.367-2.683 4.595-3.659 7.307-2.211.213.114.488.134.645-.052 1.384-1.65 3.06-2.85 5.743-2.858 4.2-.01 7.21 3.655 7.082 7.902a.483.483 0 0 0 .243.466c.365.228 1.811 1.325 2.27 3.636h.001zm-6.481 5.636c.002-.476.265-.757.747-.777 2.044-.122 3.657-1.932 3.539-4.038-.035-.608-.298-1.392-.6-1.916-.146-.253-.461-.373-.708-.222a.62.62 0 0 0-.203.244c-.488.974-1.275 1.873-2.124 2.534a.775.775 0 0 1-1.061-.12c-.28-.331-.251-.847.079-1.12 2.49-2.072 2.808-5.527.846-7.895-1.91-2.303-4.954-2.565-7.334-.785-.302.226-.878.716-1.241 1.449-.186.372-.757.507-1.086.26-.007-.005-.057-.056-.064-.062-1.674-1.37-3.992-1.036-5.147.588-1.21 1.701-.92 4.05.824 5.322.571.416 1.218.57 1.915.615a.72.72 0 0 1 .662.72.717.717 0 0 1-.701.733 5.183 5.183 0 0 1-1.466-.197c-.247-.066-.467.062-.585.274-1.059 1.922-.405 4.364 1.462 5.454.81.476 1.767.634 2.687.443a.53.53 0 0 0 .413-.583 5.754 5.754 0 0 1 1.03-3.98.769.769 0 0 1 1.077-.225c.358.245.457.73.223 1.096-1.116 1.768-.63 4.134 1.087 5.284 1.718 1.15 4.014.648 5.13-1.12.374-.59.581-1.272.599-1.976z"/></g></svg>